<!-- icon666.com - MILLIONS vector ICONS FREE --><svg id="Слой_1" enable-background="new 0 0 512 512" viewBox="0 0 512 512" xmlns="http://www.w3.org/2000/svg" xmlns:xlink="http://www.w3.org/1999/xlink"><linearGradient id="SVGID_1_" gradientTransform="matrix(1 0 0 -1 0 510)" gradientUnits="userSpaceOnUse" x1="74.981" x2="437.019" y1="435.019" y2="72.981"><stop offset="0" stop-color="#59ffc2"></stop><stop offset="1" stop-color="#4551ff"></stop></linearGradient><g><path d="m328.412 183.6c-10-10-10-26.213 0-36.213l72.4-72.412c10-10 26.2-9.988 36.2 0 10 10 10 26.213 0 36.2l-72.4 72.412c-5 5-11.55 7.5-18.1 7.5s-13.099-2.487-18.1-7.487zm157.988 46.8h-102.4c-14.137 0-25.6 11.463-25.6 25.6s11.463 25.6 25.6 25.6h102.4c14.137 0 25.6-11.463 25.6-25.6s-11.463-25.6-25.6-25.6zm-157.988 134.212 72.4 72.412c5 5 11.55 7.5 18.1 7.5s13.1-2.5 18.1-7.5c10-10 10-26.212 0-36.2l-72.4-72.412c-10-10-26.2-10-36.2-.012-10 10-10 26.212 0 36.212zm-98.012 121.788c0 14.137 11.463 25.6 25.6 25.6s25.6-11.463 25.6-25.6v-102.4c0-14.137-11.463-25.6-25.6-25.6s-25.6 11.463-25.6 25.6zm-119.212-49.375 72.4-72.412c10-10 10-26.212 0-36.212s-26.2-9.988-36.2.012l-72.4 72.412c-10 9.988-10 26.2 0 36.2 5 5 11.55 7.5 18.1 7.5s13.099-2.5 18.1-7.5zm-111.188-181.025c0 14.137 11.463 25.6 25.6 25.6h102.4c14.137 0 25.6-11.463 25.6-25.6s-11.463-25.6-25.6-25.6h-102.4c-14.137 0-25.6 11.463-25.6 25.6zm111.188-181.025c-10-10-26.2-9.988-36.2 0-10 10-10 26.213 0 36.2l72.4 72.412c5 5 11.55 7.5 18.1 7.5s13.1-2.5 18.1-7.487c10-10 10-26.213 0-36.213zm144.812 78.625c14.137 0 25.6-11.463 25.6-25.6v-102.4c0-14.137-11.463-25.6-25.6-25.6s-25.6 11.463-25.6 25.6v102.4c0 14.137 11.463 25.6 25.6 25.6z" fill="url(#SVGID_1_)" style="fill: rgb(7, 161, 233);"></path></g></svg>